<svg width="21" height="19" viewBox="0 0 21 19" fill="none" xmlns="http://www.w3.org/2000/svg">
<path d="M17.85 0H3.15C2.31457 0 1.51335 0.300263 0.922614 0.834734C0.331874 1.36921 0 2.0941 0 2.84996V12.3498C0 13.1057 0.331874 13.8306 0.922614 14.3651C1.51335 14.8995 2.31457 15.1998 3.15 15.1998H15.3195L19.2045 18.7242C19.3026 18.8123 19.419 18.8819 19.5469 18.9292C19.6748 18.9765 19.8118 19.0005 19.95 18.9997C20.0877 19.0029 20.2244 18.9769 20.349 18.9237C20.5407 18.8525 20.7049 18.7314 20.8207 18.5759C20.9366 18.4204 20.999 18.2373 21 18.0497V2.84996C21 2.0941 20.6681 1.36921 20.0774 0.834734C19.4866 0.300263 18.6854 0 17.85 0ZM18.9 15.7603L16.4955 13.5753C16.3974 13.4873 16.281 13.4176 16.1531 13.3703C16.0252 13.3231 15.8882 13.2991 15.75 13.2998H3.15C2.87152 13.2998 2.60445 13.1997 2.40754 13.0216C2.21062 12.8434 2.1 12.6018 2.1 12.3498V2.84996C2.1 2.59801 2.21062 2.35638 2.40754 2.17822C2.60445 2.00006 2.87152 1.89997 3.15 1.89997H17.85C18.1285 1.89997 18.3955 2.00006 18.5925 2.17822C18.7894 2.35638 18.9 2.59801 18.9 2.84996V15.7603Z" fill="#7D7D7D"/>
</svg>
