<svg width="20" height="20" viewBox="0 0 20 20" fill="none" xmlns="http://www.w3.org/2000/svg">
<path fill-rule="evenodd" clip-rule="evenodd" d="M10 11.7683L14.4192 16.1875C14.6537 16.422 14.9717 16.5537 15.3033 16.5537C15.635 16.5537 15.953 16.422 16.1875 16.1875C16.422 15.953 16.5537 15.635 16.5537 15.3033C16.5537 14.9717 16.422 14.6537 16.1875 14.4192L11.7667 10L16.1867 5.58083C16.3027 5.46472 16.3948 5.32689 16.4576 5.17521C16.5203 5.02352 16.5526 4.86096 16.5526 4.69679C16.5526 4.53262 16.5202 4.37007 16.4573 4.21842C16.3945 4.06676 16.3024 3.92897 16.1863 3.81292C16.0701 3.69686 15.9323 3.60481 15.7806 3.54202C15.6289 3.47924 15.4664 3.44694 15.3022 3.44698C15.138 3.44702 14.9755 3.47939 14.8238 3.54225C14.6722 3.60511 14.5344 3.69722 14.4183 3.81333L10 8.2325L5.58083 3.81333C5.46558 3.69389 5.32769 3.5986 5.17522 3.53302C5.02275 3.46744 4.85874 3.43288 4.69277 3.43136C4.52679 3.42984 4.36218 3.46139 4.20853 3.52417C4.05488 3.58694 3.91527 3.67969 3.79785 3.797C3.68043 3.91431 3.58755 4.05384 3.52463 4.20743C3.4617 4.36102 3.43 4.5256 3.43136 4.69157C3.43273 4.85755 3.46713 5.02159 3.53257 5.17412C3.59801 5.32666 3.69317 5.46463 3.8125 5.58L8.23333 10L3.81333 14.42C3.694 14.5354 3.59884 14.6733 3.5334 14.8259C3.46796 14.9784 3.43356 15.1425 3.43219 15.3084C3.43083 15.4744 3.46254 15.639 3.52546 15.7926C3.58838 15.9462 3.68127 16.0857 3.79869 16.203C3.91611 16.3203 4.05571 16.4131 4.20936 16.4758C4.36301 16.5386 4.52763 16.5702 4.6936 16.5686C4.85957 16.5671 5.02358 16.5326 5.17605 16.467C5.32853 16.4014 5.46641 16.3061 5.58167 16.1867L10 11.7683Z" fill="#393939"/>
</svg>
