<svg width="23" height="19" viewBox="0 0 23 19" fill="none" xmlns="http://www.w3.org/2000/svg">
<path d="M20.9031 2.0128C19.6838 0.87437 18.0674 0.17954 16.346 0.0538172C14.6247 -0.0719057 12.9118 0.379769 11.5167 1.32725C10.0532 0.31354 8.23148 -0.146125 6.41853 0.0408211C4.60559 0.227767 2.93605 1.04744 1.74611 2.33477C0.556168 3.62211 -0.0657776 5.28148 0.00551612 6.97874C0.0768099 8.67599 0.836047 10.2851 2.13033 11.4819L9.27365 18.1446C9.87182 18.6928 10.6775 19 11.5167 19C12.356 19 13.1616 18.6928 13.7598 18.1446L20.9031 11.4819C22.2462 10.2236 23 8.52149 23 6.74735C23 4.97321 22.2462 3.27113 20.9031 2.0128ZM19.2812 10.0037L12.1379 16.6556C12.0566 16.7321 11.9598 16.7927 11.8532 16.8341C11.7466 16.8756 11.6322 16.8969 11.5167 16.8969C11.4012 16.8969 11.2868 16.8756 11.1802 16.8341C11.0736 16.7927 10.9769 16.7321 10.8956 16.6556L3.75225 9.97156C2.85014 9.11285 2.34499 7.95934 2.34499 6.75806C2.34499 5.55679 2.85014 4.40327 3.75225 3.54456C4.67151 2.6994 5.91131 2.2255 7.20312 2.2255C8.49493 2.2255 9.73474 2.6994 10.654 3.54456C10.7609 3.64496 10.8882 3.72465 11.0283 3.77903C11.1685 3.83342 11.3189 3.86141 11.4707 3.86141C11.6226 3.86141 11.7729 3.83342 11.9131 3.77903C12.0533 3.72465 12.1805 3.64496 12.2874 3.54456C13.2067 2.6994 14.4465 2.2255 15.7383 2.2255C17.0301 2.2255 18.2699 2.6994 19.1892 3.54456C20.1037 4.39202 20.6254 5.53928 20.6426 6.74059C20.6598 7.94189 20.1711 9.1017 19.2812 9.97156V10.0037Z" fill="#7D7D7D"/>
</svg>
