<svg width="20" height="21" viewBox="0 0 20 21" fill="none" xmlns="http://www.w3.org/2000/svg">
<path d="M19.6632 18.2242L16.0438 14.5094C17.2116 12.9779 17.8452 11.0867 17.8429 9.13985C17.8429 7.40599 17.3434 5.71107 16.4076 4.26941C15.4719 2.82776 14.1418 1.70413 12.5857 1.04061C11.0296 0.377089 9.31726 0.203482 7.66529 0.541742C6.01332 0.880002 4.49588 1.71494 3.30488 2.94096C2.11387 4.16699 1.30278 5.72904 0.974186 7.42958C0.645588 9.13013 0.814237 10.8928 1.4588 12.4947C2.10337 14.0965 3.19491 15.4657 4.59539 16.429C5.99586 17.3923 7.64237 17.9064 9.32671 17.9064C11.218 17.9088 13.0551 17.2566 14.5429 16.0545L18.1516 19.7803C18.2505 19.883 18.3683 19.9645 18.498 20.0201C18.6277 20.0758 18.7669 20.1044 18.9074 20.1044C19.0479 20.1044 19.1871 20.0758 19.3168 20.0201C19.4465 19.9645 19.5642 19.883 19.6632 19.7803C19.763 19.6784 19.8422 19.5572 19.8962 19.4237C19.9503 19.2901 19.9781 19.1469 19.9781 19.0022C19.9781 18.8576 19.9503 18.7143 19.8962 18.5808C19.8422 18.4473 19.763 18.3261 19.6632 18.2242ZM2.93959 9.13985C2.93959 7.83946 3.31419 6.56826 4.01601 5.48702C4.71784 4.40579 5.71537 3.56306 6.88247 3.06542C8.04956 2.56778 9.3338 2.43758 10.5728 2.69127C11.8118 2.94496 12.9498 3.57117 13.8431 4.49068C14.7363 5.4102 15.3447 6.58174 15.5911 7.85715C15.8376 9.13256 15.7111 10.4546 15.2276 11.656C14.7442 12.8574 13.9256 13.8842 12.8752 14.6067C11.8248 15.3292 10.59 15.7148 9.32671 15.7148C7.63274 15.7148 6.00815 15.0221 4.81033 13.789C3.61252 12.556 2.93959 10.8836 2.93959 9.13985Z" fill="#7D7D7D" fill-opacity="0.843137"/>
</svg>
