<svg width="129" height="36" viewBox="0 0 129 36" fill="none" xmlns="http://www.w3.org/2000/svg">
<path d="M0 35.3078V0.692383H15.4244V3.11546L6.7154 1.9781C5.14147 1.7803 4.09219 1.6814 3.56755 1.6814V17.1594C4.12717 17.1594 5.21143 17.11 6.82032 17.0111L14.8473 16.5166V18.7913L6.82032 18.2968C5.21143 18.1979 4.12717 18.1484 3.56755 18.1484V35.3078H0Z" fill="black"/>
<path d="M115.726 18.8901V17.7033H129V31.1538C127.391 32.6703 125.414 33.8571 123.071 34.7143C120.763 35.5714 118.174 36 115.306 36C112.368 36 109.658 35.5549 107.174 34.6648C104.691 33.7418 102.523 32.4725 100.669 30.8571C98.8152 29.2088 97.3637 27.2967 96.3144 25.1209C95.3001 22.9451 94.793 20.5714 94.793 18C94.793 15.4286 95.3001 13.0549 96.3144 10.8791C97.3637 8.7033 98.8152 6.80769 100.669 5.19231C102.523 3.54396 104.691 2.27473 107.174 1.38462C109.658 0.461539 112.368 0 115.306 0C116.566 0 117.93 0.0824173 119.399 0.247252C120.903 0.412087 122.337 0.642856 123.701 0.939559C125.065 1.2033 126.219 1.53297 127.163 1.92857L126.901 4.6978H126.586C125.187 3.54396 123.508 2.67033 121.55 2.07692C119.591 1.48352 117.51 1.18681 115.306 1.18681C112.019 1.18681 109.133 1.8956 106.65 3.31319C104.167 4.6978 102.225 6.65934 100.826 9.1978C99.4623 11.7033 98.7802 14.6374 98.7802 18C98.7802 21.3626 99.4623 24.3132 100.826 26.8516C102.225 29.3571 104.167 31.3187 106.65 32.7363C109.133 34.1209 112.019 34.8132 115.306 34.8132C117.335 34.8132 119.206 34.5494 120.92 34.022C122.669 33.4945 124.173 32.7363 125.432 31.7473V18.8901H115.726Z" fill="black"/>
<path d="M48.2207 18C48.2207 15.4615 48.6929 13.1044 49.6372 10.9286C50.6166 8.71978 51.9631 6.80769 53.677 5.19231C55.4258 3.54396 57.4544 2.27473 59.7628 1.38462C62.1062 0.461539 64.6245 0 67.3176 0C70.0108 0 72.5116 0.461539 74.82 1.38462C77.1634 2.27473 79.192 3.54396 80.9058 5.19231C82.6546 6.80769 84.0012 8.71978 84.9455 10.9286C85.9249 13.1044 86.4145 15.4615 86.4145 18C86.4145 20.5385 85.9249 22.9121 84.9455 25.1209C84.0012 27.2967 82.6546 29.2088 80.9058 30.8571C79.192 32.4725 77.1634 33.7418 74.82 34.6648C72.5116 35.5549 70.0108 36 67.3176 36C64.6245 36 62.1062 35.5549 59.7628 34.6648C57.4544 33.7418 55.4258 32.4725 53.677 30.8571C51.9631 29.2088 50.6166 27.2967 49.6372 25.1209C48.6929 22.9121 48.2207 20.5385 48.2207 18ZM52.208 18C52.208 21.3626 52.8375 24.3132 54.0967 26.8516C55.3558 29.3571 57.1221 31.3187 59.3955 32.7363C61.669 34.1209 64.3097 34.8132 67.3176 34.8132C70.3255 34.8132 72.9662 34.1209 75.2397 32.7363C77.5131 31.3187 79.2794 29.3407 80.5385 26.8022C81.7977 24.2637 82.4272 21.3297 82.4272 18C82.4272 14.6703 81.7977 11.7527 80.5385 9.24725C79.2794 6.70879 77.5131 4.73077 75.2397 3.31319C72.9662 1.8956 70.3255 1.18681 67.3176 1.18681C64.3097 1.18681 61.669 1.8956 59.3955 3.31319C57.1571 4.6978 55.3908 6.65934 54.0967 9.1978C52.8375 11.7033 52.208 14.6374 52.208 18Z" fill="black"/>
<path d="M28.25 0.692383H31.8176V34.3188C32.4821 34.3188 33.5314 34.2199 34.9654 34.0221L43.6744 32.7858V35.3078H28.25V0.692383Z" fill="black"/>
<path d="M20.7559 0.438721H22.7737V4.52094C22.3701 6.05177 21.1594 6.05177 20.7559 4.52094V0.438721Z" fill="black"/>
</svg>
