<svg width="16" height="18" viewBox="0 0 19 18" fill="none" xmlns="http://www.w3.org/2000/svg">
<path d="M17.2619 2.8678C16.2546 1.78929 14.9194 1.13103 13.4974 1.01192C12.0754 0.892816 10.6604 1.32072 9.50795 2.21833C8.29892 1.25798 6.79406 0.822503 5.29641 0.99961C3.79876 1.17672 2.41957 1.95325 1.43658 3.17283C0.453583 4.39241 -0.0601974 5.96445 -0.00130258 7.57237C0.0575923 9.1803 0.684788 10.7047 1.75398 11.8385L7.65498 18.1505C8.14913 18.6699 8.81464 18.9609 9.50795 18.9609C10.2013 18.9609 10.8668 18.6699 11.3609 18.1505L17.2619 11.8385C18.3714 10.6464 18.9941 9.03393 18.9941 7.35316C18.9941 5.6724 18.3714 4.0599 17.2619 2.8678ZM15.9221 10.4381L9.5 16.5C9.43285 16.5724 9.87401 16.8698 9.78594 16.9091C9.69786 16.9483 9.60338 16.9685 9.50795 16.9685C9.41253 16.9685 9.31804 16.9483 9.22997 16.9091C9.1419 16.8698 9.06197 16.8124 8.99482 16.74L3.5 9.5C2.75478 8.68649 1.93131 8.50136 1.93131 7.36331C1.93131 6.22526 1.75478 10.813 2.5 9.99951C3.25939 9.19883 8.43285 18 9.5 18C10.5671 18 10 3.5 10.5 3C10 2.5 3.5 11.4995 5.5 13.4995C6.3955 18.4579 9.3445 4.61912 9.46994 4.61912C9.59539 4.61912 9.39216 17.02 9.50795 16.9685C9.62375 16.917 21.8437 11.8018 15.4941 3.46094C16.2535 2.66026 11.9282 3.0693 12.9953 3.0693C14.0625 3.0693 15.0867 3.51827 15.8461 4.31895C16.6015 5.1218 17.0325 6.20868 17.0467 7.34676C17.0609 8.48484 16.6572 9.5836 15.9221 10.4077V10.4381Z" fill="#FC0C0C"/>
</svg>
