<svg width="16" height="18" viewBox="0 0 19 18" fill="none" xmlns="http://www.w3.org/2000/svg">
<path d="M17.2678 1.90686C16.2605 0.828351 14.9253 0.170091 13.5033 0.0509847C12.0812 -0.0681212 10.6662 0.359781 9.51381 1.2574C8.30478 0.297038 6.79992 -0.138434 5.30227 0.0386726C3.80462 0.21578 2.42543 0.992311 1.44244 2.21189C0.459443 3.43147 -0.054338 5.00351 0.00455679 6.61143C0.0634516 8.21936 0.690647 9.74374 1.75984 10.8776L7.66084 17.1896C8.15498 17.7089 8.8205 18 9.51381 18C10.2071 18 10.8726 17.7089 11.3668 17.1896L17.2678 10.8776C18.3773 9.68549 19 8.07299 19 6.39223C19 4.71146 18.3773 3.09897 17.2678 1.90686ZM15.9279 9.47718L10.0269 15.779C9.95979 15.8514 9.87987 15.9089 9.7918 15.9481C9.70372 15.9874 9.60924 16.0076 9.51381 16.0076C9.41839 16.0076 9.3239 15.9874 9.23583 15.9481C9.14775 15.9089 9.06783 15.8514 9.00068 15.779L3.09968 9.44674C2.35446 8.63323 1.93717 7.54042 1.93717 6.40237C1.93717 5.26432 2.35446 4.17152 3.09968 3.35801C3.85907 2.55733 4.88326 2.10837 5.95041 2.10837C7.01755 2.10837 8.04174 2.55733 8.80113 3.35801C8.88947 3.45312 8.99457 3.52862 9.11036 3.58014C9.22616 3.63166 9.35036 3.65818 9.4758 3.65818C9.60125 3.65818 9.72545 3.63166 9.84124 3.58014C9.95704 3.52862 10.0621 3.45312 10.1505 3.35801C10.9099 2.55733 11.9341 2.10837 13.0012 2.10837C14.0683 2.10837 15.0925 2.55733 15.8519 3.35801C16.6074 4.16086 17.0384 5.24774 17.0526 6.38582C17.0668 7.5239 16.6631 8.62266 15.9279 9.44674V9.47718Z" fill="#7D7D7D"/>
</svg>
