<svg width="20" height="27" viewBox="0 0 32 27" fill="none" xmlns="http://www.w3.org/2000/svg">
<path d="M27.5904 0.489439L4.84756 3.0535C3.95083 3.15612 3.07597 3.51174 2.34224 4.07188C1.60851 4.63203 1.05163 5.36943 0.747524 6.18355C0.443415 6.99768 0.406878 7.8489 0.642894 8.62118C0.878911 9.39345 1.37599 10.0492 2.06637 10.499L8.66561 14.7617C8.82052 14.8674 8.94726 15.0037 9.03844 15.1624C9.12961 15.3212 9.18339 15.4993 9.19664 15.6864L9.55258 23.5346C9.58392 24.2014 9.79611 24.8298 10.1699 25.3625C10.5436 25.8952 11.0671 26.3153 11.6927 26.5848C12.3184 26.8542 13.0263 26.9644 13.7522 26.9054C14.4781 26.8463 15.199 26.6198 15.8493 26.2465C16.4553 25.8915 16.9845 25.4237 17.398 24.8773L31.0745 6.52616C31.5586 5.87351 31.8536 5.12996 31.9265 4.37845C31.9994 3.62695 31.8474 2.89706 31.4874 2.27021C31.1274 1.64336 30.5736 1.14421 29.8878 0.828444C29.202 0.512682 28.4111 0.392729 27.6034 0.481969L27.5904 0.489439ZM28.7447 5.17995L15.0682 23.5311C14.8862 23.7679 14.6371 23.9559 14.3543 24.0698C14.0714 24.1837 13.7684 24.218 13.4857 24.1683C13.203 24.1185 12.9543 23.9869 12.7728 23.7913C12.5913 23.5956 12.4858 23.3452 12.4704 23.0735L12.1015 15.2328C12.0953 15.1288 12.0824 15.0261 12.063 14.925L21.0248 9.77835C21.3697 9.58024 21.6323 9.27143 21.7548 8.91988C21.8773 8.56832 21.8496 8.2028 21.6779 7.90373C21.5061 7.60466 21.2044 7.39653 20.839 7.32514C20.4736 7.25375 20.0746 7.32494 19.7296 7.52305L10.7678 12.6697C10.6903 12.602 10.608 12.5391 10.5213 12.4814L3.93509 8.21115C3.70825 8.06095 3.54513 7.8436 3.46758 7.58825C3.39004 7.3329 3.40178 7.05176 3.50124 6.78252C3.6007 6.51328 3.78312 6.26882 4.02404 6.08191C4.26496 5.895 4.55286 5.77458 4.84914 5.7368L27.5919 3.17273C27.8593 3.14501 28.1207 3.18609 28.3473 3.29147C28.5738 3.39684 28.7567 3.56242 28.8759 3.76996C28.9951 3.9775 29.0459 4.21895 29.0228 4.46773C28.9996 4.71651 28.9034 4.96296 28.7447 5.17995Z" fill="#393939"/>
</svg>
