<svg width="24" height="24" viewBox="0 0 24 24" fill="none" xmlns="http://www.w3.org/2000/svg">
<path d="M10.3935 0C9.6631 0 9.03911 0.525929 8.91584 1.24538L8.59837 3.08949C8.43146 3.15331 8.26498 3.21936 8.10298 3.2919L6.57741 2.21378C5.9076 1.75069 5.11819 1.92018 4.65128 2.37891L2.37891 4.65021C1.86236 5.16676 1.79375 5.97962 2.21484 6.57635L3.2919 8.10298C3.21881 8.26498 3.15331 8.43039 3.08949 8.5973L1.24538 8.91477C0.525384 9.03859 0 9.6631 0 10.3935V13.6065C0 14.3369 0.525929 14.9609 1.24538 15.0842L3.08949 15.4016C3.15331 15.5685 3.21936 15.735 3.2919 15.897L2.21378 17.4226C1.79269 18.0188 1.86236 18.8322 2.37891 19.3487L4.65021 21.6211C5.24149 22.1993 6.06799 22.1533 6.57635 21.7852L8.10298 20.7081C8.26498 20.7812 8.43039 20.8467 8.5973 20.9105L8.91477 22.7546C9.03859 23.4746 9.6631 24 10.3935 24H13.6065C14.3369 24 14.9609 23.4741 15.0842 22.7546L15.4016 20.9105C15.5685 20.8467 15.735 20.7806 15.897 20.7081L17.4226 21.7862C17.8726 22.1179 18.7329 22.2375 19.3487 21.6211L21.6211 19.3498C22.1376 18.8332 22.2062 18.0204 21.7852 17.4237L20.7081 15.897C20.7812 15.735 20.8467 15.5696 20.9105 15.4027L22.7546 15.0852C23.4746 14.9614 24 14.3369 24 13.6065V10.3935C24 9.6631 23.4741 9.03911 22.7546 8.91584L20.9105 8.59837C20.8467 8.43146 20.7806 8.26498 20.7081 8.10298L21.7862 6.57741C22.2073 5.98123 22.1376 5.16782 21.6211 4.65128L19.3498 2.37891C18.7732 1.816 17.974 1.82812 17.4237 2.21484L15.897 3.2919C15.735 3.21881 15.5696 3.15331 15.4027 3.08949L15.0852 1.24538C14.9614 0.525384 14.3369 0 13.6065 0H10.3935ZM11.0263 2.18182H12.9748C13.0081 2.18182 13.0364 2.20555 13.0419 2.23828L13.4627 4.68537C14.4271 5.03173 15.3299 5.3968 16.1399 5.79226L18.1651 4.36151C18.1924 4.34241 18.2301 4.34551 18.2536 4.36896L19.631 5.74751C19.6545 5.77097 19.6586 5.8076 19.6396 5.83487L18.2077 7.86115C18.6217 8.7366 18.995 9.62692 19.3146 10.5373L21.7617 10.9592C21.7944 10.9646 21.8182 10.993 21.8182 11.0263V12.9748C21.8182 13.0081 21.7939 13.0364 21.7607 13.0419L19.3146 13.4627C18.9955 14.3731 18.6266 15.265 18.2077 16.1399L19.6396 18.1662C19.6586 18.1935 19.6545 18.2301 19.631 18.2536L18.2536 19.6321C18.2301 19.6556 18.1924 19.6586 18.1651 19.6396L16.1399 18.2088C15.2454 18.6294 14.3529 18.9977 13.4627 19.3157L13.0408 21.7617C13.0354 21.7944 13.007 21.8182 12.9737 21.8182H11.0252C10.9919 21.8182 10.9636 21.7939 10.9581 21.7607L10.5373 19.3146C9.65965 19.0097 8.76827 18.6463 7.86009 18.2077L5.83381 19.6396C5.80653 19.6586 5.7699 19.6545 5.74645 19.631L4.3679 18.2536C4.34444 18.2301 4.34135 18.1924 4.36044 18.1651L5.79119 16.1399C5.36628 15.2317 4.9974 14.3393 4.6843 13.4627L2.23828 13.0408C2.20555 13.0354 2.18182 13.007 2.18182 12.9737V11.0252C2.18182 10.9919 2.20555 10.9641 2.23828 10.9581L4.68537 10.5362C5.00228 9.64386 5.36571 8.7519 5.79226 7.86009L4.36044 5.83381C4.34135 5.80653 4.34551 5.7699 4.36896 5.74645L5.74645 4.3679C5.7699 4.34444 5.8076 4.34135 5.83487 4.36044L7.86009 5.79119C8.70445 5.38592 9.59965 5.01921 10.5373 4.6843L10.9592 2.23828C10.9646 2.20555 10.993 2.18182 11.0263 2.18182ZM12 7.09091C9.28855 7.09091 7.09091 9.28855 7.09091 12C7.09091 14.7115 9.28855 16.9091 12 16.9091C14.7115 16.9091 16.9091 14.7115 16.9091 12C16.9091 9.28855 14.7115 7.09091 12 7.09091ZM12 9.27273C13.506 9.27273 14.7273 10.494 14.7273 12C14.7273 13.506 13.506 14.7273 12 14.7273C10.494 14.7273 9.27273 13.506 9.27273 12C9.27273 10.494 10.494 9.27273 12 9.27273Z" fill="black"/>
</svg>
