<svg xmlns="http://www.w3.org/2000/svg" width="20" height="18" viewBox="0 0 33 30" fill="none">
<path d="M14.7685 0.945566C14.945 0.657859 15.1978 0.419142 15.5017 0.253227C15.8056 0.0873122 16.1501 0 16.5006 0C16.8511 0 17.1956 0.0873122 17.4995 0.253227C17.8034 0.419142 18.0562 0.657859 18.2327 0.945566L22.7154 8.25553L31.4209 10.0472C31.7634 10.1179 32.0803 10.2726 32.3402 10.496C32.6 10.7193 32.7938 11.0034 32.902 11.32C33.0102 11.6366 33.0292 11.9747 32.957 12.3004C32.8849 12.6262 32.7241 12.9283 32.4907 13.1766L26.5565 19.4856L27.4547 27.9032C27.4901 28.2346 27.4334 28.5691 27.2902 28.8732C27.147 29.1774 26.9223 29.4405 26.6385 29.6363C26.3548 29.8321 26.022 29.9538 25.6732 29.9892C25.3245 30.0246 24.9721 29.9725 24.6512 29.8381L16.5006 26.4253L8.34999 29.8381C8.0291 29.9725 7.67669 30.0246 7.32796 29.9892C6.97923 29.9538 6.64639 29.8321 6.36265 29.6363C6.07892 29.4405 5.85423 29.1774 5.71102 28.8732C5.5678 28.5691 5.51108 28.2346 5.54651 27.9032L6.44465 19.4856L0.51052 13.1781C0.276728 12.9298 0.115588 12.6276 0.0431892 12.3016C-0.0292099 11.9757 -0.0103358 11.6374 0.0979273 11.3205C0.20619 11.0037 0.400055 10.7193 0.660166 10.4959C0.920278 10.2725 1.23754 10.1178 1.58027 10.0472L10.2858 8.25553L14.7685 0.945566Z" fill="#FFC506" fill-opacity="0.96"/>
</svg>