<svg xmlns="http://www.w3.org/2000/svg" width="20" height="18" viewBox="0 0 33 30" fill="none">
<path fill-rule="evenodd" clip-rule="evenodd" d="M14.7685 0.945566C14.945 0.657859 15.1978 0.419142 15.5017 0.253227C15.8056 0.0873122 16.1501 0 16.5006 0C16.8511 0 17.1956 0.0873122 17.4995 0.253227C17.8034 0.419142 18.0562 0.657859 18.2327 0.945566L22.7154 8.25553L31.4209 10.0472C31.7634 10.1179 32.0803 10.2726 32.3402 10.496C32.6 10.7193 32.7938 11.0034 32.902 11.32C33.0102 11.6366 33.0292 11.9747 32.957 12.3004C32.8849 12.6262 32.7241 12.9283 32.4907 13.1766L26.5565 19.4856L27.4547 27.9032C27.4901 28.2346 27.4334 28.5691 27.2902 28.8732C27.147 29.1774 26.9223 29.4405 26.6385 29.6363C26.3548 29.8321 26.022 29.9538 25.6732 29.9892C25.3245 30.0246 24.9721 29.9725 24.6512 29.8381L16.5006 26.4253L8.34999 29.8381C8.0291 29.9725 7.67669 30.0246 7.32796 29.9892C6.97923 29.9538 6.64639 29.8321 6.36265 29.6363C6.07892 29.4405 5.85423 29.1774 5.71102 28.8732C5.5678 28.5691 5.51108 28.2346 5.54651 27.9032L6.44465 19.4856L0.51052 13.1781C0.276728 12.9298 0.115588 12.6276 0.0431892 12.3016C-0.0292099 11.9757 -0.0103358 11.6374 0.0979273 11.3205C0.20619 11.0037 0.400055 10.7193 0.660166 10.4959C0.920278 10.2725 1.23754 10.1178 1.58027 10.0472L10.2858 8.25553L14.7685 0.945566ZM16.5006 4.17396L12.791 10.2255C12.6507 10.4539 12.4619 10.6521 12.2366 10.8073C12.0113 10.9626 11.7544 11.0716 11.4822 11.1274L4.27789 12.6098L9.18879 17.831C9.56408 18.2302 9.74531 18.7604 9.68918 19.2921L8.94661 26.2593L15.6923 23.4346C15.947 23.328 16.2223 23.2729 16.5006 23.2729C16.7789 23.2729 17.0542 23.328 17.3089 23.4346L24.0546 26.2593L23.312 19.2921C23.2838 19.029 23.3136 18.7632 23.3995 18.5117C23.4854 18.2601 23.6254 18.0283 23.8108 17.831L28.7233 12.6098L21.519 11.1274C21.2468 11.0716 20.99 10.9626 20.7646 10.8073C20.5393 10.6521 20.3505 10.4539 20.2102 10.2255L16.5006 4.17396Z" fill="#7D7D7D"/>
</svg>