<svg width="100" height="100" viewBox="0 0 100 100" fill="none" xmlns="http://www.w3.org/2000/svg">
<path d="M50 0C36.7437 0.0148221 24.0346 5.28742 14.661 14.661C5.28742 24.0346 0.0148221 36.7437 0 50C0.0222108 63.254 5.29718 75.9588 14.6692 85.3308C24.0412 94.7028 36.746 99.9778 50 100C63.2608 100 75.9785 94.7322 85.3553 85.3553C94.7322 75.9785 100 63.2608 100 50C100 36.7392 94.7322 24.0215 85.3553 14.6447C75.9785 5.26784 63.2608 0 50 0ZM80.412 78.852C77.6039 73.188 73.2688 68.4215 67.8959 65.0902C62.5229 61.759 56.3259 59.9955 50.0041 59.9988C43.6822 60.0022 37.4871 61.7721 32.1176 65.1091C26.7482 68.446 22.4181 73.2171 19.616 78.884C12.1397 71.13 7.97376 60.7712 8 50C8 38.8609 12.425 28.178 20.3015 20.3015C28.178 12.425 38.8609 8 50 8C61.1391 8 71.822 12.425 79.6985 20.3015C87.575 28.178 92 38.8609 92 50C92.025 60.7562 87.87 71.1013 80.412 78.852ZM50 20C46.4399 20 42.9598 21.0557 39.9997 23.0335C37.0397 25.0114 34.7325 27.8226 33.3702 31.1117C32.0078 34.4008 31.6513 38.02 32.3459 41.5116C33.0404 45.0033 34.7547 48.2106 37.2721 50.7279C39.7894 53.2453 42.9967 54.9596 46.4884 55.6541C49.98 56.3487 53.5992 55.9922 56.8883 54.6298C60.1774 53.2675 62.9886 50.9603 64.9665 48.0003C66.9443 45.0402 68 41.5601 68 38C68 35.6362 67.5344 33.2956 66.6298 31.1117C65.7252 28.9278 64.3994 26.9435 62.7279 25.2721C61.0565 23.6006 59.0722 22.2748 56.8883 21.3702C54.7044 20.4656 52.3638 20 50 20Z" fill="#7E7878"/>
</svg>
