<svg width="31" height="31" viewBox="0 0 31 31" fill="none" xmlns="http://www.w3.org/2000/svg">
<path d="M30.4907 28.046L24.6371 22.2095C26.5257 19.8034 27.5505 16.8322 27.5467 13.7733C27.5467 11.0492 26.7389 8.3863 25.2255 6.12129C23.712 3.85627 21.5609 2.09091 19.0442 1.04844C16.5274 0.00596773 13.7581 -0.26679 11.0863 0.264657C8.41453 0.796104 5.96036 2.10789 4.03412 4.03412C2.10789 5.96036 0.796104 8.41453 0.264657 11.0863C-0.26679 13.7581 0.00596773 16.5274 1.04844 19.0442C2.09091 21.5609 3.85627 23.712 6.12129 25.2255C8.3863 26.7389 11.0492 27.5467 13.7733 27.5467C16.8322 27.5505 19.8034 26.5257 22.2095 24.6371L28.046 30.4907C28.206 30.6521 28.3964 30.7802 28.6062 30.8676C28.816 30.955 29.0411 31 29.2684 31C29.4956 31 29.7207 30.955 29.9305 30.8676C30.1403 30.7802 30.3307 30.6521 30.4907 30.4907C30.6521 30.3307 30.7802 30.1403 30.8676 29.9305C30.955 29.7207 31 29.4956 31 29.2684C31 29.0411 30.955 28.816 30.8676 28.6062C30.7802 28.3964 30.6521 28.206 30.4907 28.046ZM3.44334 13.7733C3.44334 11.7303 4.04918 9.73306 5.18426 8.0343C6.31934 6.33554 7.93266 5.01152 9.82022 4.22967C11.7078 3.44781 13.7848 3.24324 15.7886 3.64183C17.7925 4.04041 19.6331 5.02425 21.0778 6.46893C22.5224 7.91361 23.5063 9.75424 23.9049 11.7581C24.3034 13.7619 24.0989 15.8389 23.317 17.7265C22.5352 19.614 21.2111 21.2274 19.5124 22.3624C17.8136 23.4975 15.8164 24.1033 13.7733 24.1033C11.0337 24.1033 8.40618 23.015 6.46893 21.0778C4.53168 19.1405 3.44334 16.513 3.44334 13.7733Z" fill="#393939"/>
</svg>
